<?xml version="1.0" standalone="no"?>
<!DOCTYPE svg PUBLIC "-//W3C//DTD SVG 20010904//EN"
 "http://www.w3.org/TR/2001/REC-SVG-20010904/DTD/svg10.dtd">
<svg version="1.0" xmlns="http://www.w3.org/2000/svg"
 width="640.000000pt" height="640.000000pt" viewBox="0 0 640.000000 640.000000"
 preserveAspectRatio="xMidYMid meet">

<g transform="translate(0.000000,640.000000) scale(0.100000,-0.100000)"
fill="#000000" stroke="none">
<path d="M3103 5510 c-63 -22 -98 -46 -145 -98 -32 -36 -78 -133 -78 -166 0
-9 -15 -6 -52 12 -77 37 -210 43 -291 12 -88 -33 -137 -76 -177 -154 l-35 -69
-3 -794 c-3 -747 -4 -794 -20 -788 -92 40 -174 45 -263 19 -163 -49 -274 -188
-254 -322 4 -26 10 -348 14 -717 8 -760 4 -722 96 -911 97 -196 257 -349 480
-459 232 -115 430 -157 745 -159 230 -1 356 14 533 64 416 117 680 354 769
690 23 84 23 92 23 745 l0 660 -26 55 c-51 107 -129 159 -236 160 l-62 0 -3
898 -3 897 -33 67 c-40 81 -102 139 -181 169 -80 30 -204 24 -278 -14 -29 -15
-54 -27 -56 -27 -2 0 -9 17 -15 39 -14 45 -80 123 -132 156 -87 55 -222 70
-317 35z m190 -131 c47 -13 106 -63 123 -106 12 -26 14 -211 14 -1008 l0 -975
-52 0 c-74 0 -123 -16 -165 -53 -45 -40 -63 -82 -63 -150 0 -162 132 -366 285
-442 54 -26 72 -30 177 -33 l118 -4 2 -247 3 -246 68 -3 67 -3 0 316 0 315
-143 0 c-185 0 -226 12 -307 86 -75 70 -130 174 -132 248 0 37 4 53 18 63 14
10 109 13 467 13 l449 0 33 -33 c19 -19 38 -52 45 -76 8 -31 10 -214 8 -654
-4 -588 -5 -615 -25 -688 -43 -154 -123 -275 -248 -376 -236 -190 -641 -293
-1032 -264 -488 38 -837 232 -987 551 -75 160 -88 269 -84 735 l3 350 65 -194
c55 -163 71 -201 104 -238 64 -73 103 -88 226 -88 97 0 110 2 172 32 122 58
192 155 190 263 -1 42 -28 135 -111 385 l-111 330 0 920 c0 1052 -8 967 90
1018 114 59 260 17 299 -86 8 -19 11 -318 11 -938 l0 -909 75 0 75 0 0 1023
c0 972 1 1024 19 1062 43 92 145 135 254 104z m582 -202 c49 -28 80 -73 94
-138 7 -33 11 -331 11 -899 l0 -850 -200 0 -200 0 0 858 c0 553 4 873 11 902
29 125 174 190 284 127z m-1663 -1827 c20 -6 48 -24 61 -40 29 -34 287 -795
287 -846 0 -74 -105 -153 -215 -162 -70 -6 -136 24 -158 71 -8 18 -72 204
-141 414 -145 437 -144 428 -70 500 64 62 153 86 236 63z"/>
</g>
</svg>
